<svg width="20" height="20" viewBox="0 0 20 20" fill="none" xmlns="http://www.w3.org/2000/svg">
<path d="M19.6 10.23C19.6 9.55001 19.54 8.90001 19.43 8.27001H10V11.97H15.47C15.23 13.19 14.53 14.19 13.46 14.85V17.34H16.63C18.45 15.66 19.6 13.21 19.6 10.23Z" fill="#4285F4"/>
<path d="M10 20C12.7 20 14.94 19.1 16.63 17.34L13.46 14.85C12.54 15.45 11.38 15.81 10 15.81C7.41 15.81 5.21 14.12 4.43 11.79H1.17V14.35C2.85 17.57 6.17 20 10 20Z" fill="#34A853"/>
<path d="M4.43 11.79C4.23 11.19 4.12 10.55 4.12 9.89C4.12 9.23 4.24 8.59 4.43 7.99V5.43H1.17C0.43 6.87 0 8.43 0 10.11C0 11.79 0.43 13.35 1.17 14.79L4.43 11.79Z" fill="#FBBC05"/>
<path d="M10 4.09C11.53 4.09 12.91 4.62 14 5.66L16.7 3C14.94 1.34 12.7 0.399994 10 0.399994C6.17 0.399994 2.85 2.82999 1.17 6.04999L4.43 8.60999C5.21 6.27999 7.41 4.09 10 4.09Z" fill="#EA4335"/>
</svg>
